<svg id="Layer_1" data-name="Layer 1" xmlns="http://www.w3.org/2000/svg" viewBox="0 0 512 512"><defs><style>.cls-1{fill:#727272;}</style></defs><title>chat-handdrawn</title><path class="cls-1" d="M13.38,152.76h0c-1,14.2,4,28.29,12.91,39.27a12.17,12.17,0,0,0,3.31-2.35c4.18-4.26,3.57-4.87,8.45-8.3s4.58-4,9.92-6.53,5.88-1.46,11.45-3.55c2.89-1.09,4.27-1.86,5.68-2.41A21.47,21.47,0,0,1,61,166.61c-4.26-2.78-3.48-3.8-6-8.2s-3.86-4.23-3.94-9.34.75-5.24,3.52-9.57,2.47-4.93,6.84-7.35,4.82-1.74,9.77-1.78,5.08,0,9.54,2.22c4.64,2.3,4.72,2.38,8,6.36s1.78,4.94,1.6,10.11.23,5.38-2.35,9.71-2.82,4.5-7.09,7.12c-1.45.89-2.44,1.52-3.31,2,1.44.27,2.92.75,5.81,1.45,6,1.47,5.94,1.59,11.62,4.05s6.9.94,11.42,5.22,1.3,7.17,5.72,11.56a15.4,15.4,0,0,0,3.53,2.6c.86-1,1.72-2,2.52-3,11.93-15,15.55-30,20.91-33.88,2.57-2.2,6,6.59,2.94,19.33-.29,1.16-.63,2.38-1,3.47-8.88,24-30.21,43.3-55.69,48.29a70.08,70.08,0,0,1-37.84-2.8,65.79,65.79,0,0,1-29.77-22l-4.07-5.51C1.35,181-2.68,159.58,2,140.5A71.48,71.48,0,0,1,36.41,95.28a67.66,67.66,0,0,1,64.66-.73,65.34,65.34,0,0,1,30.26,33.21,57.23,57.23,0,0,1,4.09,23.86c-.26,5-2.18,5.16-3.28,1.35a97.1,97.1,0,0,0-14.43-31.16A57.46,57.46,0,0,0,82.82,99a58.1,58.1,0,0,0-47.1,11A57.49,57.49,0,0,0,13.38,152.76ZM512,166.09v-35.4h0V116.93a24.46,24.46,0,0,0-.46-5,21.2,21.2,0,0,0-1.84-5.15,20.92,20.92,0,0,0-7.24-8,20.7,20.7,0,0,0-10.3-3.31l-7.26,0H416.1L306,95.38l-47.18-.07-23.59-.07-11.79,0-5.9,0a26.48,26.48,0,0,0-8.12.87,20.88,20.88,0,0,0-15,20.44q.05,2.75.1,5.44.16,5.37.32,10.52c.13,3.13.28,8,.46,7.17.73-.49-2.4,2.91-4.26,5.07l-10,11,8.53,7.68,1.88,1.65,1.25,1,2.49,2c6.31,5,7.28,3.28.67-4.06l-7.55-8.29,14.17-13,.58-18.31c.2-3.49-.09-7.42.53-10.56a12,12,0,0,1,5.78-7.64c2.88-1.77,6.11-1.56,9.86-1.43l10.87.22,43.61.74c41.52.63,83.1,1.38,124.81,1.57l53.21.48,26.58.32,13.08.18a8,8,0,0,1,6.58,4.19,8.13,8.13,0,0,1,1,3.86l-.06,6.62-.1,13.31-.1,26.65q0,13.34.09,26.71l0,3.34v2.87a8,8,0,0,1-8.4,7.36c-4,.07-8.43-.08-12.37-.24-44-1.79-88.93-1.93-134-1.89l-67.6,0-33.65-.23-16.75-.23-8.35-.15-2.08,0a5.46,5.46,0,0,1-.93-.12,4.39,4.39,0,0,1-1.52-.58,6.07,6.07,0,0,1-1.89-1.57,5.8,5.8,0,0,1-1.2-2.94c-.14-2.5-.28-4.87-.41-7.09-.32-4.52-.75-8.42-1.26-11.5-1-6.17-2.34-9.07-3.72-7.19-2.59,3.76-5,12.67-6.52,27.17a17.37,17.37,0,0,0,6.28,13.41,18,18,0,0,0,7.81,3.86,58.66,58.66,0,0,0,7.47.72c8.88.54,18.66.91,29.17,1.1,14.47.25,29.29.24,44,.24h196.9c.72,0,1.37,0,2.71-.06a20.72,20.72,0,0,0,17-10.89,20.86,20.86,0,0,0,2.22-6.64,22.8,22.8,0,0,0,.27-3.39V166.09Zm-154.39-2.7q7.72,0,15.44.22a20.11,20.11,0,0,0,12.21-3.51,1.83,1.83,0,0,0-.39-3.34,51.8,51.8,0,0,0-7.76-1.91c-4.71-.71-9.47-1.25-14.23-1.69-6.79-.63-13.6-1.38-20.42-1.57-11.62-.34-23.18-2.27-34.88-1a6.21,6.21,0,0,1-2-.24c-14.39-3.57-29.44-.58-44-2.67a5,5,0,0,0-1,0c-3.65.3-6.17,2.84-5.55,5.59,1.18,5.25,6.17,9.06,13,9.79a69.66,69.66,0,0,0,7.19.24q23.17,0,46.34,0v0C333.55,163.38,345.56,163.36,357.56,163.39Zm45.67,143.4a58.1,58.1,0,0,1,47.1-11,57.46,57.46,0,0,1,34.89,22.86,97.1,97.1,0,0,1,14.43,31.16c1.09,3.8,3,3.68,3.28-1.35a57.23,57.23,0,0,0-4.09-23.86,65.34,65.34,0,0,0-30.26-33.21,67.66,67.66,0,0,0-64.66.73,71.48,71.48,0,0,0-34.42,45.22c-4.67,19.08-.63,40.52,11.65,56.23l4.07,5.51a65.79,65.79,0,0,0,29.77,22,70.08,70.08,0,0,0,37.84,2.8c25.48-5,46.81-24.24,55.69-48.29.38-1.1.72-2.31,1-3.47,3.09-12.74-.37-21.53-2.94-19.33-5.36,3.86-9,18.87-20.91,33.88-.66.82-1.36,1.62-2.06,2.42-.8-.76-1.78-1.63-3-3-4.13-4.63-2.35-6.18-7.42-9.76s-6.09-1.18-11.81-3.71-4.78-4.19-10.63-6.24a53.7,53.7,0,0,0-5.15-1.68c.81-.34,1.74-.8,3-1.49,4.57-2.47,4.85-2.73,7.37-7.27s2.85-4.88,2.87-10-.76-5.3-3.3-9.78-2.32-5.18-6.82-7.74-5-2.13-10.11-2.19-5.94-.94-10.36,1.78-3.08,4.28-6.2,8.37-3.12,4.45-3.21,9.56.25,5.32,2.79,9.8,2.12,5.58,6.65,8.1c2.56,1.42,3.89,1.77,5.5,1.81-2,.61-3.25,1.39-7,2.46-5.79,1.64-6.08.61-11.63,3s-4.86,3.45-9.58,7.2-5.27,3.08-9.2,7.61a16,16,0,0,1-2.95,2.62c-8.69-10.92-13.58-24.85-12.57-38.88h0A57.49,57.49,0,0,1,403.24,306.79Zm-95.14,3.38A14.37,14.37,0,0,0,296,298.73c-2.08-.24-3.74-.16-5.59-.23l-10.87-.22-43.61-.75c-41.52-.63-83.1-1.38-124.81-1.57l-53.21-.48-26.58-.32L17.81,295a18.2,18.2,0,0,0-15.12,9.12A18.49,18.49,0,0,0,.27,313L.2,319.71.1,333,0,359.67Q0,373,.09,386.38l0,3.34c0,1.14,0,2.06.11,3.81a18.29,18.29,0,0,0,19,16.54c4-.07,8.43.08,12.37.24,44,1.79,88.93,1.93,134,1.89l67.6,0,33.65.23,16.75.23,8.35.15,2.09,0a22.66,22.66,0,0,0,3.22-.19,20.45,20.45,0,0,0,17.77-20.4c-.08-2.81-.23-5-.39-7.36-.32-4.52-.75-8.42-1.26-11.5-1-6.17-2.34-9.07-3.72-7.19-2.64,3.44-4.85,13.39-6.63,26.45a8.61,8.61,0,0,1-4.26,5.43c-2.38,1.26-3.56.92-8.83.59-8.88-.54-18.66-.91-29.16-1.1-14.47-.25-29.29-.24-44-.24H20c-.75,0-1.58,0-1.71,0a5.33,5.33,0,0,1-4.42-2.83,5.48,5.48,0,0,1-.56-1.71,6.73,6.73,0,0,1-.08-1V327.57h0V313.82a5.73,5.73,0,0,1,.6-3.12,5.43,5.43,0,0,1,1.88-2.08,5.19,5.19,0,0,1,2.64-.84l6.5,0H93.63l110.08,0,47.18.07,23.59.07,11.79,0c3.59.08,9-.13,9.45.27A5.49,5.49,0,0,1,299,311.1a5.43,5.43,0,0,1,.49,2.26q.05,2.75.1,5.44.4,12.25.77,23.49c5.3,5.06,6.65,6.13,9.17,8.36l.84.72.23.12.52.28,1.26.75a15.22,15.22,0,0,1-.82,1.67,3.31,3.31,0,0,1-.41.63l-1,1.25-2,2.49c-5,6.31-3.28,7.28,4.06.67l7.45-6.71-12.08-13.21.58-18.13C308.11,317.49,308.64,314.16,308.1,310.17ZM86.54,344.76q-7.72,0-15.44-.22a20.11,20.11,0,0,0-12.21,3.52,1.83,1.83,0,0,0,.39,3.34A51.75,51.75,0,0,0,67,353.31c4.71.71,9.47,1.25,14.23,1.69,6.79.63,13.6,1.38,20.42,1.57,11.62.34,23.18,2.27,34.88,1a6.23,6.23,0,0,1,2,.24c14.39,3.57,29.44.58,44,2.67a5,5,0,0,0,1,0c3.65-.3,6.17-2.84,5.55-5.59-1.18-5.25-6.17-9.06-13-9.79a69.55,69.55,0,0,0-7.19-.24q-23.17,0-46.34,0v0C110.56,344.77,98.55,344.79,86.54,344.76Z"/></svg>